<svg id="Ebene_1" data-name="Ebene 1" xmlns="http://www.w3.org/2000/svg" viewBox="0 0 1198.78 1280"><defs><style>.cls-1{fill:#fff;}</style></defs><path class="cls-1" d="M14.79,1075.72v68.41h37.8v12.38H0v-80.79Z"/><path class="cls-1" d="M112.74,1135.92H82.3l-7.91,20.59H58.63l32.07-80.79h13.52l32.07,80.79H120.65ZM97.4,1095.16q-4.23,12.69-7.56,21.19l-2.76,7.19H108l-2.76-7.19q-3.28-8.58-7.56-21.19Z"/><path class="cls-1" d="M189.85,1113.28q8.68,12.38,14.12,22h.37q-.74-15.77-.73-23v-36.59h14.8v80.79H202.89l-26.33-37.19q-6.94-9.66-14.37-22.4h-.36q.72,14.85.72,23v36.59H147.76v-80.79h15.52Z"/><path class="cls-1" d="M288,1125.66H269.85v-12.38h32.91V1154c-1.21.44-2.75.9-4.61,1.39s-4,.91-6.28,1.29-4.7.7-7.16.94-4.89.36-7.31.36a55.72,55.72,0,0,1-19-2.93,36.73,36.73,0,0,1-13.52-8.24,33.55,33.55,0,0,1-8.09-12.65,46.6,46.6,0,0,1-2.69-16.21,49.85,49.85,0,0,1,1.41-12,41.64,41.64,0,0,1,4.18-10.56,40.56,40.56,0,0,1,6.66-8.79,39.62,39.62,0,0,1,9-6.7,45.21,45.21,0,0,1,11.06-4.26,53.47,53.47,0,0,1,12.88-1.48,73,73,0,0,1,11.6.88,49.5,49.5,0,0,1,9,2.14v12.56a64.82,64.82,0,0,0-9.51-2.29,59.11,59.11,0,0,0-9.69-.79,38,38,0,0,0-12.32,2,28,28,0,0,0-9.93,5.8,27.14,27.14,0,0,0-6.61,9.45,32.6,32.6,0,0,0-2.42,13q.08,14.31,7.49,21.47t21.07,7.15c1.7,0,3.45-.09,5.26-.27a47.63,47.63,0,0,0,4.77-.69Z"/><path class="cls-1" d="M354.33,1158a48.49,48.49,0,0,1-11.41-1.23,32.14,32.14,0,0,1-8.94-3.57,24.9,24.9,0,0,1-6.58-5.67,28.2,28.2,0,0,1-4.35-7.58,32.58,32.58,0,0,1-1.9-7.49,65.57,65.57,0,0,1-.58-9.18v-47.58h14.8V1122q0,8.58,2.05,13.41a15.22,15.22,0,0,0,6.7,7.76,23.87,23.87,0,0,0,20.78,0,15.22,15.22,0,0,0,6.7-7.76q2.06-4.83,2-13.41v-46.25h14.8v47.58a65.57,65.57,0,0,1-.58,9.18A32.58,32.58,0,0,1,386,1140a27.51,27.51,0,0,1-4.38,7.58,25,25,0,0,1-6.7,5.67,33.29,33.29,0,0,1-9.09,3.57A49.26,49.26,0,0,1,354.33,1158Z"/><path class="cls-1" d="M453.72,1135.92H423.29l-7.91,20.59H399.62l32.06-80.79h13.53l32.06,80.79H461.63Zm-15.34-40.76q-4.23,12.69-7.55,21.19l-2.76,7.19h20.87l-2.76-7.19q-3.29-8.58-7.56-21.19Z"/><path class="cls-1" d="M537.77,1125.66H519.66v-12.38h32.91V1154q-1.82.66-4.62,1.39t-6.28,1.29c-2.32.39-4.7.7-7.16.94s-4.89.36-7.3.36a55.72,55.72,0,0,1-19-2.93,36.69,36.69,0,0,1-13.53-8.24,33.79,33.79,0,0,1-8.09-12.65,46.84,46.84,0,0,1-2.69-16.21,49.85,49.85,0,0,1,1.42-12,41.62,41.62,0,0,1,4.17-10.56,40.93,40.93,0,0,1,6.67-8.79,39.56,39.56,0,0,1,9-6.7,45.53,45.53,0,0,1,11.06-4.26,53.56,53.56,0,0,1,12.89-1.48,72.88,72.88,0,0,1,11.59.88,49.63,49.63,0,0,1,9,2.14v12.56a64.94,64.94,0,0,0-9.52-2.29,59,59,0,0,0-9.68-.79,38,38,0,0,0-12.32,2,28,28,0,0,0-9.93,5.8,27.3,27.3,0,0,0-6.62,9.45,32.6,32.6,0,0,0-2.41,13q.06,14.31,7.49,21.47t21.07,7.15q2.54,0,5.25-.27a47.63,47.63,0,0,0,4.77-.69Z"/><path class="cls-1" d="M585.48,1144.13h39.73v12.38H570.68v-80.79H623v12.38H585.48V1109h32.24v12.38H585.48Z"/><path class="cls-1" d="M761.61,1133.33a7.77,7.77,0,0,0-1.51-5,11.21,11.21,0,0,0-4.11-3.11,30.78,30.78,0,0,0-5.82-2c-2.16-.5-4.42-1-6.8-1.48a88.52,88.52,0,0,1-9-2.44,25.39,25.39,0,0,1-7.55-3.93,17.92,17.92,0,0,1-5.19-6.37,21.44,21.44,0,0,1-1.94-9.66,25.9,25.9,0,0,1,2.24-11.14,22.06,22.06,0,0,1,6.06-7.85,26,26,0,0,1,9-4.65,40.42,40.42,0,0,1,11.62-1.54,67.56,67.56,0,0,1,13,1.27,56.33,56.33,0,0,1,11.23,3.26v12.68a68,68,0,0,0-12-3.59,56.79,56.79,0,0,0-10.84-1.12q-7.32,0-11.26,2.66a9,9,0,0,0-4,8,9.09,9.09,0,0,0,1.3,5.07,10.27,10.27,0,0,0,3.53,3.29,20.92,20.92,0,0,0,5.13,2.08c1.93.53,4,1,6.16,1.45q5.14,1.1,9.82,2.51a29.09,29.09,0,0,1,8.3,4,18.12,18.12,0,0,1,5.73,6.62,22.51,22.51,0,0,1,2.12,10.41,24.67,24.67,0,0,1-2.42,11.29,21.22,21.22,0,0,1-6.85,7.88,31,31,0,0,1-10.78,4.62,59.79,59.79,0,0,1-13.89,1.51,64.53,64.53,0,0,1-13-1.3,36.89,36.89,0,0,1-10.59-3.65v-12.5a60.26,60.26,0,0,0,11.66,3.78,57.78,57.78,0,0,0,11.71,1.17,41.21,41.21,0,0,0,6.88-.57,20.8,20.8,0,0,0,6.07-2,11.56,11.56,0,0,0,4.32-3.78A10.15,10.15,0,0,0,761.61,1133.33Z"/><path class="cls-1" d="M868.37,1116.12a52.14,52.14,0,0,1-2.63,16.93,37.61,37.61,0,0,1-7.67,13.26,34.52,34.52,0,0,1-12.37,8.63,46.81,46.81,0,0,1-33.4,0,34.35,34.35,0,0,1-12.37-8.63,37.48,37.48,0,0,1-7.68-13.26,56,56,0,0,1,0-33.87,37.43,37.43,0,0,1,7.68-13.25,34.25,34.25,0,0,1,12.37-8.64,46.81,46.81,0,0,1,33.4,0,34.42,34.42,0,0,1,12.37,8.64,37.56,37.56,0,0,1,7.67,13.25A52.2,52.2,0,0,1,868.37,1116.12Zm-15.28,0a41.31,41.31,0,0,0-1.81-12.89,26.37,26.37,0,0,0-5-9.21,20,20,0,0,0-7.61-5.5,26.68,26.68,0,0,0-19.32,0,20,20,0,0,0-7.61,5.5,26.21,26.21,0,0,0-5,9.21,46.56,46.56,0,0,0,0,25.78,26.06,26.06,0,0,0,5,9.18,20.47,20.47,0,0,0,7.61,5.49,26.28,26.28,0,0,0,19.32,0,20.55,20.55,0,0,0,7.61-5.49,26.22,26.22,0,0,0,5-9.18A41.35,41.35,0,0,0,853.09,1116.12Z"/><path class="cls-1" d="M923.38,1086.71a30.31,30.31,0,0,0-11.14,2,24.11,24.11,0,0,0-8.76,5.8,26.77,26.77,0,0,0-5.71,9.39,36.83,36.83,0,0,0-2,12.77,38.19,38.19,0,0,0,1.87,12.53,24.17,24.17,0,0,0,5.38,9,22.36,22.36,0,0,0,8.55,5.46,33,33,0,0,0,11.43,1.84,62.56,62.56,0,0,0,9.36-.72,53.9,53.9,0,0,0,8.94-2.11v12.74a68.48,68.48,0,0,1-9.12,1.9A72.52,72.52,0,0,1,922,1158a51,51,0,0,1-18.06-2.93,35.2,35.2,0,0,1-13-8.27,34.51,34.51,0,0,1-7.85-12.8,49.23,49.23,0,0,1-2.63-16.45,50.7,50.7,0,0,1,2.82-17.15,39.5,39.5,0,0,1,8.09-13.71,36.89,36.89,0,0,1,13.21-9.12,47.05,47.05,0,0,1,18-3.38,64,64,0,0,1,9.72.7,46.62,46.62,0,0,1,8.28,2v12.56a59,59,0,0,0-9-2.12A57.23,57.23,0,0,0,923.38,1086.71Z"/><path class="cls-1" d="M956.35,1156.51v-80.79h14.79v80.79Z"/><path class="cls-1" d="M1005.26,1144.13H1045v12.38H990.46v-80.79h52.35v12.38h-37.55V1109h32.24v12.38h-32.24Z"/><path class="cls-1" d="M1093.72,1156.51h-14.8V1088.1h-26.08v-12.38h66.9v12.38h-26Z"/><path class="cls-1" d="M1160.86,1110.5l21.5-34.78h16.42L1168.17,1124v32.54h-14.79V1124l-30.62-48.25h16.43l21.49,34.78Z"/><circle class="cls-1" cx="670.1" cy="1114.7" r="13.58"/><path class="cls-1" d="M312.58,1278.49V1197.7H334c1.89,0,3.82.06,5.77.18s3.85.3,5.71.54,3.64.54,5.37.88a37.54,37.54,0,0,1,4.77,1.24,41.05,41.05,0,0,1,11.41,5.55,34,34,0,0,1,8.31,8.27,36.15,36.15,0,0,1,5.07,10.66,45.63,45.63,0,0,1,1.72,12.77,49.34,49.34,0,0,1-1.45,12.23,36.16,36.16,0,0,1-4.41,10.42,33.31,33.31,0,0,1-7.45,8.3,38.94,38.94,0,0,1-10.66,5.89,56.48,56.48,0,0,1-11.66,2.89,99.85,99.85,0,0,1-14.67,1Zm20.89-12.38q13,0,20.29-3.56a22,22,0,0,0,9.78-9.3q3.33-6.11,3.32-15.58a34.23,34.23,0,0,0-1.08-8.94,24.58,24.58,0,0,0-3.14-7.09,21.67,21.67,0,0,0-5-5.34,27.57,27.57,0,0,0-6.62-3.69,35.12,35.12,0,0,0-7.67-1.93,67.82,67.82,0,0,0-9.48-.6h-6.52v56Z"/><path class="cls-1" d="M397.78,1278.49V1197.7h14.79v80.79Z"/><path class="cls-1" d="M482.13,1247.63H464v-12.37h32.91V1276a47.62,47.62,0,0,1-4.62,1.39c-1.88.49-4,.92-6.28,1.3s-4.7.7-7.16.94-4.89.36-7.3.36a55.72,55.72,0,0,1-19-2.93,36.56,36.56,0,0,1-13.52-8.24,33.69,33.69,0,0,1-8.1-12.65,46.88,46.88,0,0,1-2.69-16.21,49.79,49.79,0,0,1,1.42-12,41.83,41.83,0,0,1,4.17-10.57,40.87,40.87,0,0,1,6.67-8.78,39.6,39.6,0,0,1,9-6.71,45.51,45.51,0,0,1,11.06-4.25,53.56,53.56,0,0,1,12.89-1.48,74.1,74.1,0,0,1,11.59.87,50.39,50.39,0,0,1,9,2.15v12.56a65.16,65.16,0,0,0-9.51-2.3,60.31,60.31,0,0,0-9.69-.78,37.74,37.74,0,0,0-12.32,2,28,28,0,0,0-9.93,5.8,27.11,27.11,0,0,0-6.62,9.45,32.6,32.6,0,0,0-2.41,13q.06,14.31,7.49,21.47t21.07,7.15q2.53,0,5.25-.27a47,47,0,0,0,4.77-.7Z"/><path class="cls-1" d="M515,1278.49V1197.7h14.8v80.79Z"/><path class="cls-1" d="M582.19,1278.49H567.4v-68.41H541.31V1197.7h66.9v12.38h-26Z"/><path class="cls-1" d="M659.3,1257.9H628.87L621,1278.49H605.2l32.06-80.79h13.52l32.07,80.79H667.21ZM644,1217.14q-4.23,12.67-7.56,21.19l-2.76,7.19h20.88l-2.76-7.19q-3.28-8.58-7.56-21.19Z"/><path class="cls-1" d="M709.12,1197.7v68.41h37.79v12.38H694.32V1197.7Z"/><path class="cls-1" d="M801.08,1197.7v68.41h37.8v12.38h-52.6V1197.7Z"/><path class="cls-1" d="M852.77,1278.49V1197.7h14.79v80.79Z"/><path class="cls-1" d="M901.68,1278.49h-14.8V1197.7h51.45v12.38H901.68V1231H933v12.38H901.68Z"/><path class="cls-1" d="M966.11,1266.11h39.73v12.38H951.31V1197.7h52.35v12.38H966.11V1231h32.24v12.38H966.11Z"/><path class="cls-1" d="M278.2,1278.49H256.87l-6.51-6.4a41.77,41.77,0,0,1-24.45,7.53q-13.82,0-21.9-6.34t-8.1-17.14a24.42,24.42,0,0,1,3.43-13.22q3.42-5.46,11.74-10.22a36.81,36.81,0,0,1-6.17-9.3,24.25,24.25,0,0,1-1.92-9.71,16.89,16.89,0,0,1,6.59-13.87q6.6-5.27,17.63-5.26,10.53,0,16.84,4.9a15.75,15.75,0,0,1,6.31,13.1,21,21,0,0,1-3.91,12.31q-3.9,5.57-12.62,10.61l16.08,15.67a70.09,70.09,0,0,0,7-17h18a80.83,80.83,0,0,1-5.6,14.91,68.25,68.25,0,0,1-8.09,12.88Zm-64.12-24a9.4,9.4,0,0,0,3.65,7.76,14.67,14.67,0,0,0,9.37,2.88,24.36,24.36,0,0,0,12.84-3.45L221.16,1243a23.55,23.55,0,0,0-5.18,5.2A10.67,10.67,0,0,0,214.08,1254.49Zm20.32-40.12a5.87,5.87,0,0,0-2-4.73,7.86,7.86,0,0,0-5.26-1.72,9,9,0,0,0-6,1.81,6.28,6.28,0,0,0-2.18,5.15q0,5,5.37,11a33.78,33.78,0,0,0,7.48-5.35A8.49,8.49,0,0,0,234.4,1214.37Z"/><path class="cls-1" d="M815.74,0H383.05c-52.71,0-95.83,43.12-95.83,95.83V901.62c0,52.7,43.12,95.83,95.83,95.83H815.74c52.71,0,95.83-43.13,95.83-95.83V95.83C911.57,43.12,868.45,0,815.74,0ZM632,929.55H566.76a14.61,14.61,0,0,1,0-29.22H632a14.61,14.61,0,1,1,0,29.22ZM864.34,782.44c0,70.9-72.41,124.06-118.88,150.87,12.76-27.32,21.06-61.63,22.07-84.67L768,837.2h0V837H383.88c-27.25,0-49.43-24.49-49.43-54.59V644.74a59.15,59.15,0,0,1,.58-8.16c.05-.42.15-.82.21-1.23a61.84,61.84,0,0,1,1.45-6.73c.1-.35.21-.69.32-1a56.74,56.74,0,0,1,2.55-6.94l.06-.12a54.62,54.62,0,0,1,9.78-14.62c48.24,61.81,130.21,96.55,135.08,98.57l8.17-19.83c-17.26-10.27-35.85-58.86-40.59-94.46H814.91c27.25,0,49.43,24.48,49.43,54.58Zm0-268.73c0,29.67-21.59,53.84-48.32,54.49-.38,0-.74-.06-1.11-.06H442v.13H430.77v.2h0l.5,11.44c0,.88.18,1.91.24,2.83.15,2.23.31,4.47.58,6.87,0,.2,0,.37.05.57h0c2.59,22.28,10.27,51,21.28,74.47-31.94-18.42-76.2-49.32-100.74-89.89l0-.07c-2.07-3.43-4-7-5.75-10.51-.36-.73-.69-1.48-1-2.21q-2.08-4.38-3.83-8.89c-.37-1-.72-1.94-1.06-2.91-1-2.88-1.93-5.81-2.73-8.78-.27-1-.57-2-.81-3.08-.75-3.12-1.32-6.29-1.79-9.49-.13-.87-.31-1.73-.42-2.62a103.52,103.52,0,0,1-.79-12.52V376c0-30.08,22.18-54.56,49.43-54.56H746.66c-4.81,35.57-23.32,83.84-40.52,94.07l8.17,19.83c4.87-2,86.65-36.68,134.9-98.35a55.38,55.38,0,0,1,12.57,21.83c.09.33.2.65.29,1a58.91,58.91,0,0,1,1.48,6.84c.06.39.15.77.2,1.16a60.28,60.28,0,0,1,.59,8.23Zm0-269.16a103.69,103.69,0,0,1-.79,12.53c-.11.89-.3,1.75-.42,2.62-.47,3.21-1,6.39-1.79,9.52-.25,1-.54,2-.82,3-.8,3-1.7,5.93-2.73,8.83-.34.95-.69,1.91-1.06,2.85q-1.76,4.55-3.85,9c-.34.72-.66,1.44-1,2.14-1.75,3.54-3.64,7-5.7,10.43l-.09.16c-24.55,40.57-68.8,71.46-100.73,89.88a259.63,259.63,0,0,0,21.27-74.07c.17-1.44.21-2.7.34-4.09.21-2.23.48-4.53.57-6.58l.49-11.45h0v-.2H383.88c-27.25,0-49.42-24.47-49.43-54.57V106.9c0-30.1,22.18-54.59,49.43-54.59h431c27.25,0,49.43,24.49,49.43,54.59Z"/></svg>